<svg xmlns="http://www.w3.org/2000/svg" viewBox="0 0 420 120" role="img" aria-labelledby="logoTitle logoDesc">
  <title id="logoTitle">Safe Her Logo</title>
  <desc id="logoDesc">Logo combinada com texto Safe Her e ícone feminino premium</desc>
  <defs>
    <linearGradient id="logoGrad" x1="0%" y1="0%" x2="100%" y2="100%">
      <stop offset="0%" stop-color="#f48fb1" />
      <stop offset="100%" stop-color="#ff80ab" />
    </linearGradient>
  </defs>
  <rect width="420" height="120" rx="30" fill="#f9e5f0" />
  <g transform="translate(20, 16)">
    <path d="M36.7 10c-9.8 0-17.8 8-17.8 17.8 0 9.8 8 17.8 17.8 17.8S54.5 37.6 54.5 27.8C54.5 18 46.5 10 36.7 10Zm0 31.4c-7.5 0-13.6-6.1-13.6-13.6S29.2 14.2 36.7 14.2s13.6 6.1 13.6 13.6-6.1 13.6-13.6 13.6Z" fill="url(#logoGrad)" />
    <path d="M14.2 76.5c-1.8-12.7 2.7-25.4 11.9-33.3 4.5-3.8 10.4-6.1 16.6-6.1 6.2 0 12.1 2.3 16.6 6.1 9.2 7.8 13.7 20.6 11.9 33.3l-1.1 7.7c-1 6.8-7 11.6-13.9 11.6H29.2c-6.9 0-12.9-4.8-13.9-11.6l-1.1-7.7Z" fill="#ffc7dc" />
    <path d="M29.2 34.5c2.4 0 4.4-1.9 4.4-4.4S31.6 25.7 29.2 25.7 24.8 27.6 24.8 30s1.9 4.4 4.4 4.4Zm0 2.8c-4 0-7.3-3.3-7.3-7.3s3.3-7.3 7.3-7.3 7.3 3.3 7.3 7.3-3.3 7.3-7.3 7.3Z" fill="#ff80ab" />
    <path d="M25.8 84.8c.2-.4.7-.6 1.1-.4l9.7 4.3c.4.2.6.7.4 1.1-.2.4-.7.6-1.1.4l-9.7-4.3c-.4-.2-.6-.7-.4-1.1Z" fill="#ff80ab" />
    <path d="M18.1 54.2c-2.1-1.7-3.5-4.3-3.5-7.1 0-5.1 4.2-9.2 9.2-9.2s9.2 4.1 9.2 9.2c0 2.8-1.4 5.4-3.5 7.1-1.2.9-2.7 1.4-4.2 1.4s-3-0.5-4.2-1.4Z" fill="#fff" opacity="0.85" />
  </g>
  <text x="142" y="66" font-family="Arial, sans-serif" font-weight="800" font-size="42" fill="#e91e63">Safe</text>
  <text x="142" y="102" font-family="Arial, sans-serif" font-weight="700" font-size="24" fill="#ad1457">Her</text>
</svg>